<svg width="60" height="60" viewBox="0 0 60 60" fill="none" xmlns="http://www.w3.org/2000/svg">
<path opacity="0.21" fill-rule="evenodd" clip-rule="evenodd" d="M0 30V37C0 49.7025 10.2975 60 23 60H30H37C49.7025 60 60 49.7025 60 37V30V23C60 10.2975 49.7025 0 37 0H30H23C10.2975 0 0 10.2975 0 23V30Z" fill="#4AD991"/>
<path d="M31.3333 21.6667H42M31.3333 27H38M31.3333 35H42M31.3333 40.3333H38M18 21.6667C18 21.3131 18.1405 20.9739 18.3905 20.7239C18.6406 20.4738 18.9797 20.3333 19.3333 20.3333H24.6667C25.0203 20.3333 25.3594 20.4738 25.6095 20.7239C25.8595 20.9739 26 21.3131 26 21.6667V27C26 27.3536 25.8595 27.6928 25.6095 27.9428C25.3594 28.1929 25.0203 28.3333 24.6667 28.3333H19.3333C18.9797 28.3333 18.6406 28.1929 18.3905 27.9428C18.1405 27.6928 18 27.3536 18 27V21.6667ZM18 35C18 34.6464 18.1405 34.3072 18.3905 34.0572C18.6406 33.8071 18.9797 33.6667 19.3333 33.6667H24.6667C25.0203 33.6667 25.3594 33.8071 25.6095 34.0572C25.8595 34.3072 26 34.6464 26 35V40.3333C26 40.687 25.8595 41.0261 25.6095 41.2761C25.3594 41.5262 25.0203 41.6667 24.6667 41.6667H19.3333C18.9797 41.6667 18.6406 41.5262 18.3905 41.2761C18.1405 41.0261 18 40.687 18 40.3333V35Z" stroke="#00B658" stroke-width="2" stroke-linecap="round" stroke-linejoin="round"/>
</svg>
